<svg width="30" height="30" viewBox="0 0 30 30" fill="none" xmlns="http://www.w3.org/2000/svg">
<circle cx="15" cy="15" r="15" fill="#E30713"/>
<path d="M21.6663 14.3863V14.9996C21.6655 16.4372 21.2 17.836 20.3392 18.9875C19.4785 20.1389 18.2685 20.9812 16.8899 21.3889C15.5113 21.7965 14.0378 21.7475 12.6893 21.2493C11.3408 20.7511 10.1894 19.8303 9.40698 18.6243C8.62452 17.4183 8.25287 15.9916 8.34746 14.5571C8.44205 13.1226 8.99781 11.7571 9.93186 10.6643C10.8659 9.57146 12.1282 8.80984 13.5305 8.49301C14.9327 8.17619 16.3999 8.32114 17.713 8.90625" stroke="white" stroke-width="2" stroke-linecap="round" stroke-linejoin="round"/>
<path d="M21.6667 9.66699L15 16.3403L13 14.3403" stroke="white" stroke-width="2" stroke-linecap="round" stroke-linejoin="round"/>
</svg>
