<svg width="40" height="40" viewBox="0 0 40 40" fill="none" xmlns="http://www.w3.org/2000/svg">
<path d="M5.85938 39.2344H34.1406C37.3715 39.2344 40 36.6059 40 33.375V6.625C40 3.3941 37.3715 0.765625 34.1406 0.765625H5.85938C2.62848 0.765625 0 3.3941 0 6.625V33.375C0 36.6059 2.62848 39.2344 5.85938 39.2344ZM2.34375 6.625C2.34375 4.68652 3.9209 3.10938 5.85938 3.10938H34.1406C36.0791 3.10938 37.6562 4.68652 37.6562 6.625V33.375C37.6562 35.3135 36.0791 36.8906 34.1406 36.8906H5.85938C3.9209 36.8906 2.34375 35.3135 2.34375 33.375V6.625Z" fill="#E30713"/>
<path d="M14.1406 12.1491V28.0786L28.2422 19.9832L14.1406 12.1491ZM16.4844 16.1322L23.4766 20.0168L16.4844 24.0308V16.1322Z" fill="#E30713"/>
</svg>
