<svg width="200" height="21" viewBox="0 0 200 21" fill="none" xmlns="http://www.w3.org/2000/svg">
<path d="M3.05057 20.844L0 20.844L-3.60183e-06 0.843994L3.05057 0.843994L3.05057 20.844Z" fill="#E30713"/>
<path d="M9.08017 20.856L5.91797 20.856L5.91796 0.855957L9.08017 0.855957L9.08017 20.856Z" fill="#E30713"/>
<path d="M23.2502 20.7478L20.0137 20.7478L20.0137 0.747803L23.2502 0.747803L23.2502 20.7478Z" fill="#E30713"/>
<path d="M30.5799 20.844L25.9297 20.844L25.9297 0.843994L30.5799 0.843994L30.5799 20.844Z" fill="#E30713"/>
<path d="M41.9656 20.7478L34.6367 20.7478L34.6367 0.747803L41.9656 0.747803L41.9656 20.7478Z" fill="#E30713"/>
<path d="M49.8141 20.7478L46.0195 20.7478L46.0195 0.747803L49.8141 0.747803L49.8141 20.7478Z" fill="#E30713"/>
<path d="M57.8503 20.7478L52.4932 20.7478L52.4932 0.747803L57.8503 0.747803L57.8503 20.7478Z" fill="#E30713"/>
<path d="M70.9454 20.7478L66.5928 20.7478L66.5928 0.747803L70.9454 0.747803L70.9454 20.7478Z" fill="#E30713"/>
<path d="M83.1474 20.844L79.6133 20.844L79.6133 0.843994L83.1474 0.843994L83.1474 20.844Z" fill="#E30713"/>
<path d="M93.6001 20.844L87.127 20.844L87.1269 0.843994L93.6001 0.843994L93.6001 20.844Z" fill="#E30713"/>
<path d="M105.732 20.844L96.543 20.844L96.543 0.843994L105.732 0.843994L105.732 20.844Z" fill="#E30713"/>
<path d="M117.223 20.844L108.704 20.844L108.704 0.843994L117.223 0.843994L117.223 20.844Z" fill="#E30713"/>
<path d="M124.219 20.844L120.238 20.844L120.238 0.843994L124.219 0.843994L124.219 20.844Z" fill="#E30713"/>
<path d="M132.105 20.844L128.311 20.844L128.311 0.843994L132.105 0.843994L132.105 20.844Z" fill="#E30713"/>
<path d="M137.91 20.844L134.971 20.844L134.971 0.843994L137.91 0.843994L137.91 20.844Z" fill="#E30713"/>
<path d="M144.046 20.844L140.438 20.844L140.437 0.843994L144.046 0.843994L144.046 20.844Z" fill="#E30713"/>
<path d="M158.333 20.844L146.838 20.844L146.838 0.843994L158.333 0.843994L158.333 20.844Z" fill="#E30713"/>
<path d="M165.139 20.844L161.27 20.844L161.27 0.843994L165.139 0.843994L165.139 20.844Z" fill="#E30713"/>
<path d="M178.571 21H173.771V1H178.571V21Z" fill="#E30713"/>
<path d="M184.971 21H181.362V1H184.971V21Z" fill="#E30713"/>
<path d="M200 21H193.639V1H200V21Z" fill="#E30713"/>
</svg>
