<svg width="443" height="444" viewBox="0 0 443 444" fill="none" xmlns="http://www.w3.org/2000/svg">
<path d="M284.035 261.695L205.781 203.992L221.962 182.196L300.217 239.898L284.035 261.695Z" fill="black"/>
<path d="M224.394 183.602L223.235 182.747L206.223 205.819L207.382 206.673L224.394 183.602Z" fill="white"/>
<path d="M226.696 185.274L225.495 184.388L208.977 206.789L210.178 207.675L226.696 185.274Z" fill="white"/>
<path d="M231.969 189.394L230.739 188.487L212.417 213.335L213.647 214.242L231.969 189.394Z" fill="white"/>
<path d="M234.852 191.313L233.085 190.011L215.813 213.434L217.58 214.737L234.852 191.313Z" fill="white"/>
<path d="M239.078 194.637L236.294 192.584L218.392 216.862L221.176 218.915L239.078 194.637Z" fill="white"/>
<path d="M242.061 196.835L240.619 195.772L220.938 222.463L222.379 223.526L242.061 196.835Z" fill="white"/>
<path d="M245.114 199.087L243.079 197.586L226.524 220.038L228.559 221.539L245.114 199.087Z" fill="white"/>
<path d="M250.088 202.754L248.435 201.535L231.533 224.456L233.187 225.675L250.088 202.754Z" fill="white"/>
<path d="M254.823 206.039L253.48 205.049L236.468 228.121L237.811 229.111L254.823 206.039Z" fill="white"/>
<path d="M258.794 208.967L256.335 207.153L235.912 234.85L238.372 236.663L258.794 208.967Z" fill="white"/>
<path d="M263.402 212.365L259.911 209.791L242.491 233.416L245.982 235.99L263.402 212.365Z" fill="white"/>
<path d="M267.768 215.585L264.531 213.198L247.519 236.27L250.755 238.657L267.768 215.585Z" fill="white"/>
<path d="M270.425 217.544L268.913 216.429L251.901 239.501L253.413 240.616L270.425 217.544Z" fill="white"/>
<path d="M273.421 219.753L271.979 218.69L254.967 241.762L256.408 242.825L273.421 219.753Z" fill="white"/>
<path d="M275.626 221.38L274.51 220.557L257.089 244.181L258.206 245.005L275.626 221.38Z" fill="white"/>
<path d="M277.958 223.099L276.587 222.088L259.315 245.512L260.686 246.522L277.958 223.099Z" fill="white"/>
<path d="M283.385 227.1L279.018 223.88L260.621 248.828L264.988 252.048L283.385 227.1Z" fill="white"/>
<path d="M285.971 229.007L284.501 227.923L266.932 251.749L268.402 252.833L285.971 229.007Z" fill="white"/>
<path d="M291.234 232.551L289.411 231.207L271.423 255.603L273.246 256.947L291.234 232.551Z" fill="white"/>
<path d="M293.666 234.345L292.295 233.334L275.406 256.238L276.777 257.249L293.666 234.345Z" fill="white"/>
<path d="M299.375 238.555L296.958 236.772L280.069 259.677L282.486 261.459L299.375 238.555Z" fill="white"/>
<path d="M207.161 171.439L203.345 168.625L169.554 214.45L173.37 217.264L207.161 171.439Z" fill="#E30713"/>
<path d="M218.82 180.036L203.345 168.625L200.38 172.646L215.855 184.058L218.82 180.036Z" fill="#E30713"/>
<path d="M203.402 200.946L187.927 189.535L184.962 193.556L200.437 204.968L203.402 200.946Z" fill="#E30713"/>
<path d="M187.996 221.84L172.521 210.429L169.555 214.45L185.031 225.861L187.996 221.84Z" fill="#E30713"/>
<path d="M189.907 228.449C189.716 227.584 189.801 226.611 190.173 225.515C190.545 224.418 191.194 223.242 192.109 222.002L194.481 218.785C195.407 217.528 196.339 216.56 197.263 215.87C198.186 215.18 199.09 214.812 199.959 214.729C200.828 214.645 201.624 214.896 202.345 215.428C202.953 215.876 203.358 216.511 203.533 217.338C203.708 218.166 203.661 219.088 203.366 220.138L200.967 222.947C201.425 222.328 201.723 221.746 201.901 221.179C202.079 220.612 202.073 220.116 201.95 219.663C201.826 219.209 201.518 218.827 201.094 218.515C200.416 218.014 199.671 217.93 198.871 218.246C198.071 218.561 197.282 219.247 196.491 220.319L194.156 223.486C193.378 224.542 192.956 225.498 192.903 226.339C192.851 227.179 193.164 227.85 193.842 228.35C194.28 228.673 194.734 228.827 195.204 228.811C195.674 228.795 196.173 228.62 196.65 228.299C197.139 227.962 197.619 227.488 198.076 226.868L195.957 230.039C195.214 230.603 194.43 230.956 193.605 231.098C192.78 231.24 192.028 231.047 191.335 230.536C190.588 230.011 190.099 229.314 189.907 228.449ZM209.16 211.866L211.196 213.367L196.172 233.741L194.137 232.24L209.16 211.866Z" fill="#E30713"/>
<path d="M207.528 241.805C206.962 241.388 206.559 240.78 206.351 240.057L206.248 239.723C205.97 238.768 206.034 237.677 206.413 236.482C206.792 235.287 207.475 234.006 208.463 232.666L209.649 231.057C210.687 229.65 211.732 228.558 212.786 227.809C213.84 227.06 214.861 226.623 215.851 226.552C216.842 226.48 217.775 226.754 218.623 227.38C219.428 227.974 219.884 228.775 220.031 229.789C220.164 230.792 219.96 231.987 219.429 233.328C218.898 234.67 218.065 236.125 216.904 237.7L216.212 238.638L209.725 233.855L211.38 231.609L216.072 235.069C216.868 233.871 217.338 232.821 217.466 231.907C217.582 231.01 217.363 230.331 216.783 229.903C216.063 229.372 215.252 229.317 214.35 229.712C213.448 230.108 212.521 230.95 211.582 232.224L210.247 234.033C209.383 235.206 208.927 236.267 208.882 237.216C208.836 238.166 209.208 238.905 209.985 239.478C210.367 239.76 210.835 239.924 211.377 239.987C211.931 240.034 212.505 239.966 213.099 239.783L212.983 242.543C212.009 242.859 211.076 242.999 210.211 242.93C209.345 242.861 208.616 242.607 208.008 242.159L207.528 241.805Z" fill="#E30713"/>
<path d="M220.926 251.684C220.926 251.684 220.734 251.413 220.349 250.87C219.963 250.328 219.668 249.722 219.465 249.081C219.274 248.422 219.16 247.718 219.149 246.934L221.801 245.734C221.906 246.716 222.108 247.538 222.408 248.225C222.721 248.895 223.133 249.432 223.642 249.807C224.405 250.37 225.108 250.629 225.749 250.559C226.378 250.505 226.959 250.132 227.465 249.445C227.799 248.992 227.959 248.567 227.908 248.193C227.856 247.819 227.726 247.464 227.464 247.168C227.215 246.855 226.826 246.465 226.31 245.981C226.254 245.939 226.211 245.908 226.155 245.866C226.098 245.824 226.054 245.766 226.012 245.735C225.983 245.714 225.955 245.693 225.941 245.683C225.913 245.662 225.885 245.641 225.87 245.63C225.284 245.094 224.831 244.554 224.542 244.03C224.252 243.506 224.142 242.856 224.255 242.111C224.353 241.356 224.78 240.481 225.522 239.476C226.263 238.471 227.022 237.737 227.799 237.275C228.576 236.813 229.37 236.623 230.183 236.705C230.995 236.787 231.825 237.14 232.673 237.766C233.182 238.141 233.627 238.573 233.995 239.051C234.362 239.529 234.666 240.063 234.893 240.644C235.119 241.225 235.282 241.862 235.369 242.573L232.688 243.752C232.527 242.935 232.306 242.228 231.986 241.656C231.679 241.067 231.286 240.623 230.834 240.289C230.17 239.8 229.552 239.602 228.992 239.681C228.432 239.76 227.904 240.121 227.422 240.774C227.138 241.159 227.027 241.517 227.063 241.854C227.11 242.174 227.252 242.485 227.485 242.76C227.718 243.036 228.091 243.388 228.577 243.824C228.607 243.872 228.635 243.893 228.678 243.924C228.72 243.955 228.762 243.987 228.792 244.035C228.807 244.045 228.835 244.066 228.849 244.076C228.863 244.087 228.891 244.108 228.893 244.135C229.536 244.712 230.031 245.284 230.363 245.84C230.696 246.395 230.809 247.099 230.702 247.925C230.594 248.752 230.121 249.748 229.294 250.87C228.54 251.893 227.754 252.632 226.963 253.084C226.172 253.535 225.335 253.694 224.481 253.581C223.626 253.468 222.725 253.062 221.806 252.385C221.223 251.903 220.926 251.684 220.926 251.684Z" fill="#E30713"/>
<path d="M248.521 240.89L250.895 242.64L248.795 245.489L246.42 243.738L248.521 240.89ZM244.233 246.704L246.608 248.454L235.921 262.948L233.546 261.197L244.233 246.704Z" fill="#E30713"/>
<path d="M244.97 269.879C244.805 269.008 244.942 268.023 245.351 266.876C245.775 265.74 246.449 264.53 247.413 263.223L249.896 259.855C250.86 258.548 251.815 257.519 252.775 256.779C253.735 256.039 254.636 255.616 255.489 255.495C256.356 255.384 257.136 255.598 257.829 256.109C258.423 256.546 258.787 257.177 258.935 258.011C259.084 258.845 258.986 259.807 258.652 260.88L256.156 263.85C256.638 263.197 256.975 262.592 257.154 262.025C257.344 261.441 257.365 260.939 257.268 260.48C257.17 260.02 256.889 259.632 256.479 259.329C255.829 258.85 255.112 258.787 254.288 259.136C253.463 259.485 252.651 260.231 251.836 261.337L249.389 264.654C248.574 265.76 248.128 266.75 248.036 267.614C247.945 268.478 248.231 269.154 248.881 269.634C249.305 269.946 249.745 270.09 250.213 270.047C250.695 270.014 251.167 269.819 251.68 269.448C252.194 269.076 252.672 268.575 253.154 267.922L250.923 271.243C250.17 271.851 249.375 272.248 248.552 272.417C247.729 272.587 246.98 272.448 246.316 271.958C245.583 271.444 245.12 270.74 244.97 269.879ZM241.791 277.83C241.268 277.444 240.868 276.891 240.663 276.222L240.577 275.926C240.292 275.069 240.27 274.122 240.526 273.095L243.213 272.231C243.072 272.955 243.074 273.603 243.205 274.165C243.336 274.727 243.619 275.143 244.001 275.424C244.75 275.976 245.564 276.085 246.443 275.751C247.323 275.416 248.189 274.685 249.042 273.529L260.297 258.265L262.262 259.713L251.34 274.525C250.302 275.932 249.255 276.997 248.175 277.752C247.094 278.507 246.044 278.896 245.025 278.947C244.006 278.997 243.031 278.692 242.126 278.025L241.815 277.796L241.791 277.83Z" fill="#E30713"/>
<path d="M269.511 265.031L271.447 266.459L260.612 281.153L258.675 279.726L269.511 265.031ZM271.212 275.21C271.978 274.171 272.388 273.231 272.454 272.401C272.521 271.571 272.222 270.911 271.572 270.431C270.936 269.962 270.27 269.859 269.561 270.112C268.851 270.365 268.148 270.933 267.481 271.838L269.371 268.86C270.323 268.191 271.225 267.796 272.078 267.675C272.931 267.553 273.641 267.715 274.234 268.153C275.294 268.934 275.745 270.068 275.559 271.534C275.372 273.001 274.582 274.694 273.173 276.604L266.588 285.534L264.652 284.107L271.212 275.21Z" fill="#E30713"/>
<path d="M176.394 148.751L180.28 151.617L146.477 197.459L142.591 194.593L176.394 148.751ZM163.078 170.359L172.533 177.331C173.268 177.873 174.141 178.051 175.153 177.891C176.15 177.722 177.22 177.218 178.322 176.375C179.436 175.515 180.506 174.389 181.544 172.982C182.581 171.575 183.34 170.22 183.832 168.902C184.324 167.583 184.492 166.439 184.359 165.436C184.226 164.433 183.784 163.641 183.035 163.089L173.58 156.117L178.09 150.002L187.403 156.869C189 158.047 190.006 159.642 190.418 161.627C190.831 163.612 190.614 165.859 189.822 168.353C189.004 170.853 187.638 173.415 185.699 176.046C183.759 178.676 181.715 180.739 179.554 182.249C177.393 183.759 175.323 184.613 173.305 184.806C171.286 184.999 169.48 184.52 167.897 183.353L158.597 176.495L163.107 170.38L163.078 170.359ZM167.18 180.626L172.115 182.04L162.803 209.523L158.181 206.115L167.18 180.626Z" fill="#E30713"/>
<g filter="url(#filter0_d_131_406)">
<path d="M388.321 215.585C388.321 307.588 313.738 382.17 221.736 382.17C129.733 382.17 55.1504 307.588 55.1504 215.585C55.1504 123.583 129.733 49 221.736 49C313.738 49 388.321 123.583 388.321 215.585ZM113.538 215.585C113.538 275.341 161.98 323.783 221.736 323.783C281.491 323.783 329.933 275.341 329.933 215.585C329.933 155.829 281.491 107.388 221.736 107.388C161.98 107.388 113.538 155.829 113.538 215.585Z" fill="white"/>
</g>
<path d="M222.075 361.722L221.969 350.659L224.058 350.639L224.149 360.053L228.829 360.008L228.739 350.594L230.828 350.574L230.934 361.637L222.075 361.722Z" fill="black"/>
<path d="M199.356 354.586L199.44 354.023C199.564 353.196 199.786 352.469 200.105 351.841C200.424 351.217 200.821 350.706 201.295 350.306C201.77 349.906 202.307 349.625 202.904 349.463C203.502 349.302 204.144 349.273 204.831 349.375C205.507 349.477 206.11 349.692 206.639 350.023C207.163 350.352 207.596 350.778 207.938 351.301C208.28 351.823 208.514 352.429 208.641 353.119C208.768 353.814 208.769 354.575 208.645 355.402L208.561 355.965C208.436 356.797 208.212 357.524 207.888 358.146C207.565 358.769 207.165 359.28 206.691 359.68C206.215 360.085 205.678 360.369 205.081 360.53C204.478 360.691 203.838 360.72 203.162 360.619C202.475 360.516 201.87 360.3 201.346 359.971C200.822 359.641 200.391 359.213 200.055 358.686C199.714 358.164 199.482 357.558 199.36 356.869C199.232 356.179 199.231 355.418 199.356 354.586ZM201.529 354.336L201.443 354.914C201.353 355.511 201.33 356.042 201.373 356.51C201.415 356.982 201.52 357.39 201.689 357.733C201.858 358.075 202.088 358.348 202.381 358.551C202.672 358.758 203.016 358.892 203.412 358.951C203.812 359.011 204.18 358.984 204.515 358.87C204.844 358.761 205.139 358.567 205.401 358.289C205.663 358.01 205.886 357.652 206.069 357.213C206.247 356.779 206.38 356.264 206.47 355.667L206.556 355.089C206.645 354.498 206.668 353.966 206.626 353.494C206.579 353.02 206.472 352.61 206.304 352.262C206.13 351.918 205.899 351.643 205.613 351.436C205.326 351.23 204.983 351.096 204.582 351.036C204.181 350.976 203.813 351.003 203.479 351.117C203.144 351.23 202.848 351.427 202.591 351.706C202.329 351.989 202.108 352.351 201.93 352.79C201.751 353.229 201.618 353.745 201.529 354.336Z" fill="black"/>
<path d="M181.31 348.063L179.314 347.446C179.586 346.756 179.976 346.19 180.484 345.747C180.99 345.31 181.594 345.03 182.294 344.908C182.995 344.785 183.776 344.857 184.637 345.123C185.3 345.328 185.862 345.629 186.323 346.026C186.777 346.426 187.125 346.903 187.368 347.455C187.604 348.01 187.727 348.626 187.735 349.302C187.742 349.983 187.627 350.708 187.389 351.478L187.139 352.283C186.901 353.053 186.585 353.716 186.19 354.272C185.795 354.829 185.342 355.267 184.83 355.585C184.311 355.908 183.749 356.105 183.144 356.177C182.533 356.248 181.896 356.181 181.233 355.976C180.372 355.71 179.693 355.325 179.197 354.822C178.699 354.323 178.37 353.747 178.212 353.094C178.053 352.44 178.051 351.745 178.205 351.008L180.201 351.625C180.102 352.082 180.082 352.49 180.141 352.847C180.195 353.203 180.35 353.508 180.606 353.762C180.855 354.02 181.229 354.225 181.727 354.379C182.114 354.499 182.478 354.532 182.818 354.478C183.153 354.423 183.463 354.28 183.746 354.049C184.028 353.824 184.284 353.51 184.514 353.11C184.742 352.714 184.943 352.235 185.117 351.674L185.371 350.853C185.537 350.316 185.642 349.821 185.687 349.369C185.731 348.916 185.707 348.513 185.615 348.161C185.522 347.809 185.354 347.511 185.112 347.266C184.869 347.021 184.547 346.837 184.146 346.713C183.657 346.562 183.236 346.516 182.883 346.577C182.526 346.636 182.221 346.791 181.968 347.042C181.711 347.291 181.492 347.631 181.31 348.063Z" fill="black"/>
<path d="M160.707 348.042L165.461 338.052L167.341 338.947L162.587 348.937L160.707 348.042ZM157.606 346.567L158.315 345.078L166.363 348.907L165.654 350.396L157.606 346.567Z" fill="black"/>
<path d="M147.061 332.497L149.431 334.078L148.521 335.443L146.15 333.862C145.763 333.604 145.407 333.457 145.082 333.424C144.751 333.391 144.453 333.449 144.191 333.596C143.925 333.748 143.695 333.969 143.501 334.26C143.313 334.542 143.194 334.843 143.145 335.164C143.096 335.484 143.143 335.802 143.286 336.116C143.425 336.428 143.688 336.713 144.076 336.972L145.877 338.174L151.102 330.342L152.84 331.502L146.701 340.705L143.161 338.344C142.444 337.866 141.919 337.33 141.585 336.735C141.244 336.142 141.091 335.532 141.126 334.904C141.154 334.277 141.36 333.677 141.742 333.104C142.138 332.51 142.615 332.088 143.171 331.838C143.723 331.586 144.332 331.513 144.996 331.622C145.657 331.727 146.345 332.019 147.061 332.497Z" fill="black"/>
<path d="M126.031 318.277L126.415 317.856C126.979 317.239 127.568 316.758 128.183 316.414C128.795 316.074 129.41 315.871 130.027 315.803C130.644 315.735 131.246 315.801 131.832 316C132.419 316.199 132.968 316.532 133.481 317C133.986 317.46 134.367 317.975 134.622 318.545C134.874 319.11 134.996 319.705 134.989 320.329C134.982 320.954 134.839 321.588 134.56 322.232C134.278 322.879 133.855 323.512 133.292 324.129L132.908 324.55C132.341 325.171 131.75 325.65 131.134 325.987C130.519 326.324 129.902 326.526 129.285 326.594C128.665 326.665 128.061 326.601 127.475 326.402C126.884 326.2 126.337 325.868 125.832 325.408C125.319 324.94 124.937 324.423 124.685 323.857C124.433 323.292 124.314 322.697 124.328 322.072C124.336 321.448 124.481 320.815 124.763 320.175C125.042 319.531 125.465 318.899 126.031 318.277ZM127.976 319.28L127.582 319.712C127.175 320.157 126.86 320.586 126.635 320.998C126.407 321.414 126.267 321.811 126.216 322.19C126.166 322.569 126.205 322.923 126.335 323.255C126.462 323.589 126.673 323.892 126.968 324.161C127.268 324.434 127.588 324.617 127.929 324.709C128.263 324.801 128.617 324.805 128.989 324.719C129.362 324.634 129.747 324.46 130.143 324.198C130.533 323.937 130.931 323.583 131.337 323.138L131.731 322.706C132.134 322.264 132.45 321.835 132.678 321.42C132.903 321.001 133.042 320.6 133.096 320.217C133.143 319.835 133.105 319.478 132.983 319.147C132.86 318.815 132.649 318.513 132.349 318.24C132.05 317.967 131.73 317.785 131.388 317.693C131.047 317.601 130.692 317.599 130.323 317.688C129.947 317.777 129.563 317.954 129.17 318.219C128.777 318.485 128.379 318.838 127.976 319.28Z" fill="black"/>
<path d="M117.667 306.055L108.721 307.245L107.408 305.609L116.035 298.683L117.348 300.318L111.328 305.152L120.273 303.962L121.582 305.591L112.955 312.518L111.647 310.888L117.667 306.055ZM107.249 309.986L106.336 308.849C106.667 308.582 107.027 308.427 107.413 308.383C107.8 308.338 108.187 308.408 108.574 308.591C108.954 308.773 109.308 309.067 109.634 309.474C110.126 310.086 110.358 310.699 110.331 311.312C110.303 311.925 110.039 312.433 109.537 312.836L108.624 311.698C108.833 311.53 108.968 311.314 109.03 311.051C109.091 310.787 108.996 310.5 108.746 310.188C108.495 309.876 108.236 309.723 107.969 309.73C107.698 309.733 107.458 309.818 107.249 309.986Z" fill="black"/>
<path d="M97.589 275.713L96.684 273.83C97.3747 273.56 98.0549 273.461 98.7244 273.532C99.3893 273.606 100.005 273.858 100.571 274.289C101.138 274.719 101.616 275.34 102.007 276.153C102.307 276.779 102.469 277.395 102.491 278.003C102.506 278.608 102.394 279.187 102.154 279.741C101.908 280.292 101.54 280.801 101.05 281.266C100.555 281.734 99.9449 282.143 99.219 282.492L98.4588 282.857C97.7328 283.206 97.0316 283.425 96.355 283.514C95.6785 283.603 95.0492 283.568 94.4671 283.409C93.8783 283.248 93.3514 282.97 92.8864 282.576C92.4191 282.176 92.0353 281.664 91.7347 281.038C91.3442 280.226 91.1647 279.466 91.1962 278.76C91.2231 278.055 91.4222 277.423 91.7936 276.863C92.1649 276.302 92.673 275.827 93.3181 275.439L94.223 277.322C93.8205 277.561 93.5083 277.823 93.2863 278.109C93.0621 278.391 92.9437 278.712 92.9313 279.072C92.9121 279.43 93.0154 279.844 93.2414 280.314C93.4169 280.68 93.6401 280.969 93.9108 281.181C94.1794 281.389 94.4946 281.519 94.8563 281.57C95.2134 281.623 95.6171 281.598 96.0673 281.494C96.513 281.392 97.0006 281.214 97.5303 280.96L98.3042 280.588C98.811 280.344 99.2455 280.085 99.6078 279.81C99.9701 279.534 100.249 279.243 100.444 278.936C100.639 278.628 100.744 278.303 100.758 277.958C100.773 277.614 100.689 277.253 100.507 276.874C100.285 276.413 100.032 276.073 99.7481 275.856C99.4616 275.634 99.1406 275.516 98.7852 275.501C98.4275 275.482 98.0288 275.553 97.589 275.713Z" fill="black"/>
<path d="M89.5814 259.218L90.4173 261.918L89.0136 262.369L88.2969 260.053C88.174 259.656 88.0158 259.342 87.8221 259.11C87.6284 258.879 87.4041 258.728 87.1493 258.659C86.8929 258.584 86.6123 258.594 86.3075 258.689C85.9687 258.793 85.7132 258.944 85.5407 259.141C85.3667 259.332 85.2733 259.579 85.2604 259.88C85.2427 260.182 85.2982 260.541 85.427 260.957L85.9349 262.598L94.928 259.814L95.5459 261.81L84.9777 265.082L83.852 261.445C83.6662 260.845 83.5588 260.292 83.5296 259.787C83.4941 259.278 83.544 258.823 83.6792 258.42C83.8145 258.018 84.0349 257.677 84.3405 257.396C84.6447 257.111 85.0436 256.892 85.5371 256.74C85.9726 256.605 86.4057 256.582 86.8364 256.671C87.2607 256.758 87.651 256.973 88.0073 257.319C88.362 257.66 88.6545 258.142 88.8846 258.766L89.5814 259.218ZM94.319 257.847L95.3099 261.048L93.4837 260.698L92.7512 258.332C92.6284 257.935 92.462 257.629 92.2519 257.413C92.0404 257.192 91.8014 257.054 91.535 256.999C91.2623 256.94 90.976 256.957 90.6759 257.05C90.3469 257.152 90.0794 257.298 89.8734 257.489C89.6659 257.675 89.535 257.912 89.4808 258.199C89.425 258.482 89.4586 258.821 89.5814 259.218L90.224 261.294L88.8114 261.715L87.9935 259.073L88.3963 258.448C88.2124 257.836 88.1799 257.303 88.2986 256.847C88.4159 256.387 88.6324 256.007 88.948 255.708C89.2637 255.408 89.6369 255.192 90.0675 255.059C90.745 254.849 91.3592 254.821 91.9103 254.973C92.4599 255.122 92.9377 255.44 93.3437 255.93C93.7483 256.414 94.0734 257.053 94.319 257.847Z" fill="black"/>
<path d="M83.077 234.642L83.6405 234.557C84.4671 234.433 85.2275 234.432 85.9218 234.553C86.6111 234.675 87.2167 234.904 87.7384 235.241C88.2602 235.577 88.6859 236.008 89.0156 236.532C89.3453 237.056 89.5616 237.661 89.6646 238.348C89.7661 239.024 89.7366 239.664 89.5761 240.266C89.4149 240.864 89.1347 241.403 88.7354 241.883C88.3362 242.363 87.8254 242.765 87.2031 243.089C86.5757 243.414 85.8487 243.638 85.0221 243.762L84.4586 243.847C83.627 243.971 82.8662 243.97 82.1762 243.843C81.4861 243.717 80.8802 243.485 80.3584 243.148C79.8317 242.812 79.4034 242.382 79.0738 241.858C78.7434 241.329 78.5274 240.726 78.4259 240.05C78.3229 239.364 78.352 238.722 78.5132 238.124C78.6745 237.526 78.9576 236.989 79.3626 236.513C79.7618 236.033 80.2729 235.634 80.8961 235.315C81.5185 234.991 82.2454 234.767 83.077 234.642ZM83.9541 236.646L83.3755 236.733C82.7794 236.823 82.2642 236.956 81.8299 237.134C81.3906 237.313 81.0318 237.533 80.7536 237.795C80.4753 238.057 80.2822 238.358 80.1743 238.696C80.0614 239.036 80.0346 239.404 80.094 239.8C80.1542 240.2 80.2877 240.544 80.4946 240.83C80.6958 241.113 80.9678 241.338 81.3107 241.507C81.6536 241.676 82.0616 241.784 82.5348 241.83C83.0022 241.873 83.5339 241.849 84.13 241.76L84.7086 241.673C85.2997 241.584 85.8149 241.451 86.2542 241.272C86.6928 241.088 87.0537 240.865 87.3369 240.603C87.6144 240.335 87.81 240.035 87.9237 239.7C88.0374 239.365 88.0642 238.998 88.004 238.597C87.9439 238.196 87.8103 237.853 87.6034 237.566C87.3965 237.28 87.122 237.054 86.7798 236.891C86.4319 236.723 86.0217 236.618 85.5493 236.576C85.0769 236.534 84.5452 236.558 83.9541 236.646Z" fill="black"/>
<path d="M76.4528 219.373L87.5118 219.67L87.4557 221.759L76.3967 221.461L76.4528 219.373ZM81.4492 217.295L83.0367 217.338L82.9581 220.262L81.3707 220.219L81.4492 217.295ZM81.9866 208.895L82.5562 208.911C83.3917 208.933 84.1407 209.065 84.8031 209.305C85.4604 209.546 86.0165 209.878 86.4714 210.3C86.9262 210.723 87.2701 211.221 87.5029 211.795C87.7358 212.369 87.8429 213.003 87.8243 213.696C87.8059 214.38 87.6651 215.002 87.4017 215.562C87.1384 216.123 86.7681 216.607 86.291 217.015C85.8139 217.417 85.2407 217.724 84.5713 217.934C83.8969 218.139 83.1419 218.23 82.3064 218.207L81.7368 218.192C80.8962 218.17 80.1472 218.038 79.4899 217.797C78.8327 217.552 78.2767 217.217 77.8218 216.795C77.3621 216.367 77.0157 215.866 76.7829 215.292C76.55 214.719 76.4427 214.09 76.4611 213.406C76.4797 212.713 76.6207 212.085 76.8841 211.525C77.1474 210.964 77.5201 210.486 78.002 210.088C78.479 209.685 79.0522 209.381 79.7215 209.176C80.391 208.966 81.146 208.873 81.9866 208.895ZM82.4997 211.015L81.9148 210.999C81.3123 210.983 80.7815 211.027 80.3227 211.131C79.8589 211.23 79.4671 211.384 79.1473 211.593C78.8275 211.803 78.5849 212.065 78.4193 212.38C78.2488 212.689 78.1582 213.046 78.1473 213.452C78.1365 213.852 78.208 214.211 78.3616 214.529C78.5101 214.847 78.7384 215.119 79.0465 215.346C79.3546 215.572 79.7375 215.749 80.1951 215.878C80.6479 216.002 81.1755 216.072 81.7781 216.088L82.363 216.104C82.9605 216.12 83.4911 216.078 83.9549 215.979C84.4188 215.875 84.8133 215.716 85.1383 215.502C85.4582 215.287 85.7034 215.025 85.8739 214.716C86.0443 214.406 86.135 214.051 86.1457 213.651C86.1566 213.246 86.0852 212.884 85.9316 212.566C85.778 212.248 85.5472 211.976 85.2391 211.749C84.9259 211.523 84.5404 211.348 84.0826 211.224C83.6248 211.101 83.0972 211.031 82.4997 211.015Z" fill="black"/>
<path d="M80.9933 180.192L91.6359 183.213L91.0653 185.223L80.4228 182.202L80.9933 180.192ZM82.7921 173.855L87.7537 179.805L87.0047 182.444L85.1611 182.205L85.6757 180.392L82.097 176.304L82.7921 173.855ZM92.8475 178.944L87.1271 180.788L86.0271 179.015L93.5301 176.54L92.8475 178.944Z" fill="black"/>
<path d="M90.2809 158.34L97.5109 165.102L96.5936 167.114L88.2424 158.763L88.8287 157.477L90.2809 158.34ZM99.9129 159.834L90.0603 158.824L88.4536 158.3L89.043 157.007L100.833 157.815L99.9129 159.834ZM96.1128 158.26L97.613 158.944L95.1511 164.343L93.6509 163.659L96.1128 158.26Z" fill="black"/>
<path d="M105.12 141.765L103.561 144.15L102.187 143.252L103.747 140.867C104.002 140.477 104.145 140.12 104.175 139.795C104.205 139.463 104.144 139.167 103.995 138.905C103.84 138.641 103.617 138.413 103.325 138.222C103.04 138.036 102.738 137.92 102.417 137.874C102.097 137.828 101.78 137.878 101.466 138.024C101.155 138.166 100.873 138.432 100.618 138.822L99.4327 140.634L107.312 145.786L106.169 147.535L96.9093 141.481L99.2376 137.92C99.7088 137.199 100.24 136.669 100.831 136.329C101.421 135.982 102.03 135.824 102.658 135.853C103.285 135.876 103.887 136.075 104.464 136.452C105.061 136.843 105.488 137.315 105.743 137.87C106.001 138.419 106.078 139.027 105.976 139.693C105.877 140.354 105.592 141.045 105.12 141.765Z" fill="black"/>
<path d="M113.237 125.587L115.012 123.576C115.578 122.935 116.173 122.48 116.795 122.211C117.413 121.939 118.021 121.851 118.619 121.947C119.221 122.039 119.78 122.312 120.296 122.768C120.684 123.11 120.975 123.492 121.17 123.914C121.368 124.333 121.468 124.779 121.468 125.252C121.465 125.723 121.361 126.205 121.155 126.698C120.945 127.189 120.627 127.675 120.201 128.157L117.496 131.222L109.202 123.9L110.59 122.328L117.653 128.564L118.971 127.071C119.272 126.729 119.458 126.39 119.526 126.052C119.595 125.713 119.572 125.396 119.456 125.098C119.341 124.8 119.158 124.54 118.907 124.319C118.66 124.101 118.388 123.958 118.089 123.891C117.791 123.823 117.484 123.85 117.168 123.97C116.853 124.09 116.544 124.321 116.242 124.663L114.467 126.673L113.237 125.587Z" fill="black"/>
<path d="M134.921 111.343L135.991 112.587L131.533 116.422L130.463 115.178L134.921 111.343ZM124.802 107.619L132.017 116.006L130.433 117.369L123.218 108.982L124.802 107.619ZM131.173 108.163L132.218 109.378L128.342 112.713L127.296 111.497L131.173 108.163ZM128.759 104.215L129.834 105.465L125.393 109.286L124.318 108.036L128.759 104.215Z" fill="black"/>
<path d="M145.798 100.258L143.399 101.795L142.513 100.413L144.913 98.8758C145.305 98.6244 145.582 98.3569 145.743 98.0732C145.906 97.7825 145.972 97.4872 145.942 97.1874C145.91 96.8833 145.8 96.584 145.611 96.2897C145.428 96.004 145.2 95.7743 144.926 95.6007C144.652 95.427 144.343 95.3427 143.997 95.3476C143.655 95.3498 143.288 95.4766 142.896 95.728L141.073 96.8961L146.151 104.823L144.391 105.95L138.424 96.6348L142.007 94.3396C142.732 93.8751 143.434 93.609 144.112 93.5413C144.792 93.4666 145.413 93.5714 145.974 93.8556C146.536 94.1329 147.004 94.5616 147.375 95.1416C147.76 95.743 147.956 96.3487 147.962 96.9587C147.972 97.5659 147.794 98.1521 147.428 98.7173C147.066 99.2798 146.523 99.7933 145.798 100.258Z" fill="black"/>
<path d="M162.984 90.6721L162.585 83.0305L164.657 82.1L164.86 91.8623C164.862 92.1776 164.845 92.4909 164.807 92.8022C164.769 93.1135 164.69 93.4129 164.569 93.7003C164.45 93.9811 164.271 94.2423 164.029 94.4839C163.793 94.7235 163.471 94.9345 163.064 95.1171C162.958 95.1648 162.829 95.2173 162.677 95.2744C162.527 95.3362 162.411 95.3801 162.328 95.4061L161.656 93.9089C161.717 93.8979 161.812 93.8667 161.938 93.8153C162.07 93.7618 162.163 93.7226 162.219 93.6977C162.487 93.5774 162.681 93.4403 162.8 93.2866C162.923 93.1262 162.997 92.9513 163.023 92.7619C163.052 92.5659 163.059 92.3542 163.046 92.1269L162.984 90.6721ZM158.273 84.9664L163.067 89.169L164.56 90.9724L163.13 91.6645L156.208 85.8939L158.273 84.9664Z" fill="black"/>
<path d="M241.386 71.4561L240.067 82.4401L237.992 82.1908L239.115 72.8439L234.468 72.2856L233.345 81.6325L231.27 81.3832L232.59 70.3993L241.386 71.4561Z" fill="black"/>
<path d="M262.998 81.459L262.842 82.007C262.612 82.8108 262.299 83.5036 261.901 84.0854C261.505 84.6624 261.046 85.1187 260.523 85.4543C260.001 85.79 259.433 85.9993 258.819 86.0824C258.205 86.1655 257.565 86.1118 256.898 85.9215C256.24 85.7339 255.67 85.4423 255.188 85.0466C254.71 84.6523 254.336 84.1742 254.064 83.6121C253.792 83.05 253.638 82.4186 253.601 81.718C253.565 81.0125 253.662 80.2578 253.891 79.4541L254.047 78.9061C254.278 78.0975 254.594 77.4053 254.995 76.8297C255.396 76.2541 255.858 75.7985 256.38 75.4629C256.904 75.1224 257.473 74.9106 258.086 74.8276C258.705 74.7459 259.343 74.7988 260.001 74.9864C260.668 75.1767 261.24 75.469 261.718 75.8633C262.195 76.2576 262.567 76.7375 262.832 77.3031C263.104 77.8652 263.256 78.4958 263.288 79.1951C263.325 79.8957 263.229 80.6504 262.998 81.459ZM260.81 81.4277L260.971 80.865C261.136 80.2854 261.228 79.761 261.246 79.2921C261.265 78.8182 261.213 78.4004 261.09 78.0387C260.966 77.6769 260.773 77.3768 260.509 77.1382C260.247 76.8948 259.923 76.7182 259.538 76.6085C259.148 76.4973 258.78 76.4766 258.434 76.5464C258.094 76.6126 257.776 76.7669 257.48 77.0092C257.184 77.2514 256.917 77.5782 256.679 77.9895C256.447 78.3974 256.248 78.8912 256.083 79.4708L255.922 80.0334C255.758 80.6083 255.667 81.1326 255.647 81.6064C255.633 82.0817 255.687 82.5026 255.809 82.8692C255.937 83.2324 256.13 83.5349 256.387 83.777C256.645 84.019 256.969 84.1956 257.358 84.3067C257.748 84.4179 258.116 84.4386 258.462 84.3688C258.809 84.2991 259.128 84.1424 259.418 83.8987C259.715 83.6516 259.981 83.3216 260.214 82.9089C260.448 82.4962 260.647 82.0025 260.81 81.4277Z" fill="black"/>
<path d="M280.053 90.2512L281.953 91.1204C281.594 91.7698 281.135 92.281 280.574 92.654C280.016 93.0223 279.381 93.2222 278.671 93.2536C277.96 93.285 277.195 93.1131 276.375 92.738C275.744 92.4493 275.226 92.0785 274.82 91.6256C274.421 91.1702 274.137 90.653 273.967 90.0741C273.804 89.4927 273.762 88.8662 273.841 88.1948C273.922 87.5188 274.13 86.8146 274.465 86.0822L274.816 85.3153C275.151 84.5829 275.55 83.9661 276.013 83.465C276.476 82.9639 276.983 82.5883 277.532 82.3381C278.087 82.0854 278.67 81.9621 279.28 81.9682C279.895 81.9764 280.517 82.1248 281.148 82.4136C281.968 82.7887 282.592 83.2578 283.02 83.821C283.449 84.3797 283.7 84.9932 283.773 85.6616C283.846 86.33 283.759 87.0198 283.512 87.7311L281.612 86.8618C281.769 86.4211 281.841 86.0197 281.828 85.6575C281.82 85.2973 281.706 84.9749 281.486 84.6901C281.272 84.4029 280.927 84.1507 280.453 83.9336C280.084 83.765 279.728 83.6856 279.384 83.6952C279.044 83.707 278.719 83.8089 278.408 84.001C278.1 84.1884 277.806 84.4661 277.526 84.8339C277.248 85.1971 276.987 85.6459 276.743 86.1802L276.386 86.961C276.152 87.4723 275.984 87.9496 275.881 88.3929C275.779 88.8361 275.751 89.2383 275.797 89.5994C275.844 89.9604 275.971 90.2779 276.18 90.5517C276.389 90.8256 276.685 91.05 277.067 91.2249C277.532 91.4377 277.944 91.5368 278.301 91.5222C278.664 91.5096 278.986 91.3953 279.269 91.1793C279.556 90.9654 279.817 90.656 280.053 90.2512Z" fill="black"/>
<path d="M300.481 92.9256L294.481 102.22L292.732 101.091L298.732 91.7964L300.481 92.9256ZM303.367 94.7883L302.472 96.1735L294.985 91.3395L295.879 89.9543L303.367 94.7883Z" fill="black"/>
<path d="M312.011 110.098L309.865 108.225L310.944 106.988L313.09 108.862C313.442 109.168 313.776 109.359 314.093 109.434C314.418 109.509 314.72 109.49 315 109.378C315.283 109.262 315.539 109.072 315.769 108.809C315.992 108.553 316.148 108.269 316.239 107.958C316.329 107.647 316.323 107.326 316.222 106.995C316.124 106.668 315.899 106.351 315.548 106.045L313.917 104.621L307.727 111.715L306.153 110.341L313.426 102.005L316.632 104.803C317.281 105.369 317.733 105.968 317.988 106.601C318.25 107.232 318.323 107.858 318.207 108.476C318.098 109.094 317.817 109.662 317.365 110.181C316.895 110.719 316.368 111.076 315.784 111.252C315.204 111.432 314.591 111.425 313.946 111.232C313.305 111.042 312.66 110.664 312.011 110.098Z" fill="black"/>
<path d="M331.034 126.907L330.599 127.275C329.961 127.815 329.315 128.216 328.66 128.477C328.01 128.736 327.374 128.859 326.753 128.846C326.132 128.834 325.544 128.692 324.988 128.419C324.432 128.146 323.93 127.745 323.482 127.215C323.04 126.693 322.729 126.133 322.549 125.536C322.372 124.942 322.328 124.336 322.415 123.718C322.503 123.1 322.726 122.49 323.086 121.887C323.449 121.281 323.95 120.709 324.588 120.169L325.023 119.801C325.665 119.258 326.313 118.859 326.967 118.604C327.62 118.35 328.258 118.229 328.879 118.241C329.503 118.25 330.093 118.391 330.649 118.664C331.209 118.941 331.709 119.34 332.151 119.862C332.599 120.392 332.911 120.954 333.088 121.547C333.265 122.14 333.306 122.746 333.212 123.363C333.124 123.982 332.899 124.59 332.536 125.189C332.177 125.791 331.676 126.364 331.034 126.907ZM329.235 125.662L329.682 125.285C330.142 124.895 330.51 124.511 330.786 124.131C331.066 123.749 331.255 123.373 331.355 123.004C331.454 122.634 331.46 122.277 331.374 121.932C331.292 121.584 331.121 121.257 330.863 120.951C330.601 120.642 330.307 120.42 329.98 120.285C329.661 120.15 329.311 120.101 328.93 120.138C328.55 120.174 328.146 120.297 327.719 120.506C327.299 120.715 326.859 121.014 326.399 121.404L325.952 121.782C325.496 122.168 325.127 122.552 324.847 122.935C324.571 123.321 324.381 123.701 324.278 124.073C324.182 124.446 324.174 124.805 324.253 125.15C324.332 125.494 324.502 125.821 324.764 126.13C325.026 126.44 325.32 126.662 325.647 126.797C325.973 126.932 326.325 126.979 326.702 126.939C327.086 126.899 327.491 126.773 327.914 126.56C328.338 126.348 328.779 126.048 329.235 125.662Z" fill="black"/>
<path d="M337.756 140.105L346.78 140.077L347.871 141.868L338.424 147.625L337.333 145.835L343.925 141.817L334.901 141.844L333.814 140.06L343.26 134.303L344.348 136.087L337.756 140.105ZM348.593 137.548L349.352 138.794C348.989 139.015 348.613 139.123 348.223 139.117C347.834 139.111 347.459 138.992 347.099 138.761C346.745 138.532 346.433 138.194 346.161 137.749C345.753 137.078 345.602 136.441 345.708 135.836C345.814 135.232 346.142 134.762 346.691 134.427L347.45 135.673C347.221 135.813 347.059 136.009 346.964 136.263C346.87 136.516 346.926 136.814 347.135 137.156C347.343 137.497 347.58 137.682 347.846 137.71C348.115 137.742 348.364 137.688 348.593 137.548Z" fill="black"/>
<path d="M353.758 172.781L354.412 174.765C353.693 174.944 353.005 174.955 352.351 174.798C351.701 174.639 351.123 174.31 350.617 173.81C350.11 173.31 349.716 172.632 349.433 171.776C349.216 171.117 349.135 170.485 349.191 169.879C349.254 169.277 349.44 168.717 349.749 168.199C350.065 167.684 350.495 167.227 351.041 166.829C351.592 166.428 352.249 166.102 353.014 165.849L353.815 165.585C354.58 165.333 355.304 165.206 355.986 165.205C356.668 165.204 357.288 165.319 357.845 165.551C358.408 165.787 358.895 166.13 359.305 166.582C359.717 167.038 360.031 167.596 360.249 168.255C360.532 169.111 360.612 169.887 360.49 170.584C360.372 171.278 360.093 171.88 359.653 172.388C359.212 172.896 358.647 173.301 357.958 173.603L357.303 171.619C357.733 171.435 358.076 171.215 358.333 170.959C358.592 170.708 358.75 170.405 358.809 170.05C358.874 169.698 358.825 169.274 358.662 168.778C358.535 168.394 358.351 168.078 358.109 167.832C357.87 167.591 357.574 167.422 357.222 167.325C356.875 167.226 356.471 167.2 356.011 167.245C355.556 167.288 355.05 167.402 354.492 167.586L353.676 167.855C353.142 168.031 352.678 168.233 352.283 168.459C351.888 168.685 351.575 168.938 351.341 169.218C351.108 169.498 350.962 169.807 350.904 170.146C350.845 170.486 350.882 170.855 351.013 171.254C351.174 171.74 351.381 172.109 351.635 172.362C351.89 172.619 352.193 172.777 352.544 172.838C352.896 172.903 353.301 172.884 353.758 172.781Z" fill="black"/>
<path d="M359.574 190.171L359.093 187.385L360.543 187.119L360.956 189.508C361.027 189.917 361.143 190.249 361.305 190.504C361.467 190.759 361.67 190.937 361.914 191.039C362.159 191.145 362.438 191.172 362.753 191.117C363.102 191.057 363.375 190.94 363.572 190.768C363.769 190.6 363.893 190.368 363.945 190.071C364.001 189.773 363.992 189.41 363.918 188.981L363.626 187.289L354.349 188.891L353.993 186.832L364.895 184.949L365.543 188.7C365.65 189.319 365.685 189.881 365.649 190.386C365.619 190.895 365.511 191.34 365.325 191.722C365.139 192.103 364.876 192.414 364.537 192.652C364.199 192.896 363.775 193.061 363.266 193.149C362.817 193.227 362.384 193.194 361.969 193.049C361.559 192.909 361.2 192.645 360.891 192.256C360.583 191.873 360.355 191.357 360.207 190.709L359.574 190.171ZM354.7 190.92L354.129 187.618L355.895 188.2L356.317 190.641C356.388 191.05 356.513 191.375 356.694 191.617C356.875 191.863 357.094 192.031 357.351 192.12C357.614 192.213 357.9 192.233 358.21 192.18C358.549 192.121 358.833 192.01 359.062 191.847C359.292 191.69 359.452 191.472 359.543 191.194C359.635 190.921 359.645 190.58 359.574 190.171L359.205 188.029L360.66 187.793L361.13 190.519L360.65 191.087C360.754 191.717 360.718 192.25 360.541 192.687C360.366 193.128 360.102 193.477 359.75 193.733C359.399 193.989 359.001 194.156 358.557 194.233C357.858 194.353 357.245 194.302 356.718 194.08C356.192 193.862 355.76 193.485 355.42 192.947C355.081 192.414 354.841 191.739 354.7 190.92Z" fill="black"/>
<path d="M362.859 215.38L362.29 215.391C361.454 215.408 360.7 215.311 360.027 215.102C359.359 214.892 358.788 214.587 358.314 214.186C357.84 213.785 357.473 213.303 357.214 212.741C356.954 212.178 356.818 211.55 356.804 210.857C356.79 210.173 356.902 209.542 357.139 208.965C357.376 208.393 357.723 207.895 358.181 207.47C358.638 207.046 359.197 206.713 359.856 206.472C360.52 206.231 361.27 206.102 362.105 206.085L362.675 206.074C363.516 206.057 364.27 206.156 364.938 206.371C365.606 206.586 366.177 206.894 366.651 207.295C367.13 207.695 367.499 208.177 367.759 208.739C368.018 209.307 368.155 209.932 368.168 210.616C368.182 211.31 368.071 211.943 367.834 212.515C367.597 213.087 367.247 213.583 366.784 214.002C366.326 214.427 365.768 214.757 365.109 214.993C364.45 215.234 363.7 215.363 362.859 215.38ZM362.248 213.279L362.833 213.268C363.435 213.256 363.964 213.19 364.417 213.069C364.876 212.949 365.26 212.776 365.57 212.552C365.879 212.328 366.11 212.055 366.26 211.733C366.416 211.411 366.49 211.05 366.482 210.649C366.474 210.244 366.386 209.886 366.217 209.576C366.054 209.27 365.814 209.011 365.495 208.799C365.177 208.588 364.786 208.428 364.323 208.321C363.865 208.219 363.335 208.174 362.732 208.185L362.147 208.197C361.549 208.209 361.021 208.275 360.563 208.396C360.104 208.521 359.717 208.696 359.403 208.92C359.093 209.149 358.86 209.422 358.705 209.74C358.549 210.057 358.475 210.418 358.483 210.823C358.491 211.228 358.579 211.586 358.747 211.897C358.916 212.208 359.159 212.467 359.477 212.673C359.8 212.884 360.194 213.041 360.657 213.144C361.12 213.246 361.65 213.291 362.248 213.279Z" fill="black"/>
<path d="M367.462 231.375L356.533 229.656L356.858 227.591L367.786 229.31L367.462 231.375ZM362.239 232.791L360.671 232.545L361.125 229.655L362.694 229.902L362.239 232.791ZM360.625 241.052L360.062 240.963C359.236 240.834 358.51 240.607 357.884 240.283C357.263 239.959 356.755 239.559 356.358 239.081C355.961 238.603 355.685 238.065 355.528 237.466C355.371 236.867 355.346 236.225 355.454 235.539C355.56 234.864 355.78 234.265 356.113 233.743C356.447 233.221 356.876 232.789 357.402 232.446C357.927 232.108 358.535 231.878 359.226 231.756C359.921 231.64 360.681 231.646 361.507 231.776L362.07 231.865C362.9 231.995 363.626 232.222 364.247 232.546C364.867 232.874 365.375 233.277 365.772 233.755C366.173 234.238 366.452 234.78 366.609 235.379C366.766 235.978 366.791 236.615 366.685 237.29C366.577 237.976 366.357 238.58 366.023 239.101C365.69 239.623 365.259 240.05 364.73 240.382C364.205 240.72 363.597 240.948 362.907 241.065C362.216 241.187 361.455 241.183 360.625 241.052ZM360.389 238.884L360.967 238.975C361.562 239.069 362.094 239.094 362.562 239.049C363.035 239.011 363.444 238.909 363.788 238.742C364.132 238.576 364.406 238.347 364.611 238.056C364.82 237.771 364.956 237.429 365.019 237.028C365.081 236.633 365.056 236.268 364.945 235.932C364.839 235.598 364.647 235.298 364.371 235.034C364.094 234.77 363.738 234.545 363.3 234.358C362.867 234.177 362.353 234.04 361.758 233.946L361.18 233.855C360.589 233.763 360.058 233.735 359.585 233.774C359.112 233.817 358.7 233.924 358.35 234.095C358.005 234.266 357.728 234.494 357.519 234.779C357.31 235.065 357.175 235.405 357.113 235.8C357.05 236.2 357.074 236.568 357.185 236.904C357.296 237.239 357.49 237.539 357.767 237.803C358.048 238.068 358.408 238.291 358.846 238.472C359.284 238.654 359.798 238.791 360.389 238.884Z" fill="black"/>
<path d="M357.913 269.644L347.748 265.277L348.573 263.357L358.738 267.724L357.913 269.644ZM355.313 275.696L351.159 269.157L352.242 266.637L354.039 267.111L353.296 268.843L356.318 273.358L355.313 275.696ZM345.997 269.354L351.907 268.263L352.77 270.163L345.01 271.651L345.997 269.354Z" fill="black"/>
<path d="M345.887 290.119L339.588 282.482L340.757 280.605L347.963 289.961L347.216 291.161L345.887 290.119ZM336.528 287.396L346.168 289.667L347.694 290.394L346.943 291.6L335.355 289.28L336.528 287.396ZM340.093 289.447L338.694 288.575L341.831 283.538L343.23 284.409L340.093 289.447Z" fill="black"/>
<path d="M329.038 304.645L330.891 302.481L332.138 303.548L330.284 305.712C329.981 306.066 329.793 306.402 329.721 306.721C329.649 307.046 329.671 307.348 329.786 307.626C329.905 307.908 330.097 308.163 330.362 308.39C330.62 308.611 330.905 308.765 331.217 308.852C331.529 308.939 331.85 308.931 332.18 308.826C332.506 308.725 332.821 308.498 333.124 308.144L334.532 306.499L327.382 300.376L328.741 298.789L337.144 305.985L334.376 309.216C333.816 309.871 333.221 310.328 332.591 310.589C331.961 310.856 331.337 310.935 330.718 310.825C330.099 310.722 329.528 310.447 329.005 309.998C328.462 309.534 328.1 309.01 327.919 308.428C327.734 307.85 327.735 307.237 327.922 306.59C328.106 305.947 328.478 305.299 329.038 304.645Z" fill="black"/>
<path d="M318.905 319.641L316.886 321.406C316.242 321.97 315.594 322.345 314.942 322.531C314.294 322.72 313.68 322.73 313.099 322.558C312.514 322.389 311.995 322.046 311.542 321.527C311.202 321.138 310.962 320.722 310.823 320.278C310.68 319.838 310.639 319.383 310.699 318.913C310.763 318.447 310.929 317.982 311.197 317.519C311.468 317.06 311.846 316.619 312.33 316.195L315.408 313.505L322.689 321.833L321.11 323.214L314.909 316.12L313.41 317.431C313.067 317.731 312.84 318.044 312.728 318.37C312.616 318.697 312.599 319.015 312.675 319.325C312.751 319.636 312.899 319.917 313.119 320.168C313.336 320.416 313.588 320.593 313.875 320.698C314.162 320.804 314.47 320.817 314.799 320.739C315.127 320.66 315.463 320.471 315.806 320.171L317.825 318.405L318.905 319.641Z" fill="black"/>
<path d="M295.566 330.974L294.664 329.602L299.58 326.373L300.481 327.745L295.566 330.974ZM305.121 335.97L299.046 326.724L300.792 325.576L306.867 334.822L305.121 335.97ZM298.873 334.611L297.993 333.271L302.266 330.463L303.147 331.803L298.873 334.611ZM300.758 338.836L299.853 337.458L304.749 334.241L305.654 335.619L300.758 338.836Z" fill="black"/>
<path d="M283.351 340.566L285.929 339.351L286.629 340.835L284.051 342.05C283.63 342.249 283.321 342.479 283.125 342.739C282.926 343.007 282.822 343.291 282.813 343.592C282.806 343.898 282.877 344.209 283.026 344.525C283.17 344.832 283.367 345.089 283.616 345.296C283.865 345.504 284.161 345.627 284.505 345.667C284.844 345.709 285.224 345.63 285.646 345.432L287.604 344.508L283.589 335.993L285.479 335.102L290.197 345.108L286.349 346.923C285.57 347.29 284.84 347.464 284.158 347.443C283.474 347.43 282.872 347.246 282.352 346.892C281.83 346.545 281.422 346.059 281.128 345.436C280.824 344.79 280.708 344.164 280.781 343.559C280.849 342.955 281.101 342.397 281.537 341.884C281.968 341.372 282.573 340.933 283.351 340.566Z" fill="black"/>
<path d="M265.075 347.858L264.487 355.487L262.312 356.143L263.369 346.436C263.407 346.123 263.465 345.814 263.542 345.511C263.62 345.207 263.737 344.92 263.894 344.651C264.047 344.387 264.259 344.152 264.53 343.943C264.795 343.736 265.142 343.568 265.568 343.439C265.68 343.406 265.815 343.37 265.973 343.333C266.129 343.291 266.25 343.263 266.336 343.248L266.81 344.819C266.747 344.822 266.65 344.841 266.517 344.875C266.38 344.911 266.282 344.938 266.224 344.956C265.943 345.041 265.733 345.152 265.594 345.289C265.452 345.432 265.356 345.596 265.306 345.78C265.252 345.971 265.218 346.18 265.201 346.407L265.075 347.858ZM269.012 354.123L264.799 349.338L263.551 347.357L265.059 346.855L271.18 353.469L269.012 354.123Z" fill="black"/>
<defs>
<filter id="filter0_d_131_406" x="0.490391" y="0.823791" width="442.49" height="442.49" filterUnits="userSpaceOnUse" color-interpolation-filters="sRGB">
<feFlood flood-opacity="0" result="BackgroundImageFix"/>
<feColorMatrix in="SourceAlpha" type="matrix" values="0 0 0 0 0 0 0 0 0 0 0 0 0 0 0 0 0 0 127 0" result="hardAlpha"/>
<feOffset dy="6.48379"/>
<feGaussianBlur stdDeviation="27.33"/>
<feComposite in2="hardAlpha" operator="out"/>
<feColorMatrix type="matrix" values="0 0 0 0 0 0 0 0 0 0 0 0 0 0 0 0 0 0 0.15 0"/>
<feBlend mode="normal" in2="BackgroundImageFix" result="effect1_dropShadow_131_406"/>
<feBlend mode="normal" in="SourceGraphic" in2="effect1_dropShadow_131_406" result="shape"/>
</filter>
</defs>
</svg>
